# xmcd
#
# Track frame offsets: 
#        150
#        7524
#        24970
#        36886
#        50049
#        69553
#        84826
#        97149
#        113898
#        125905
#        146146
#        163448
#        183757
#        208259
#
# Disc length: 3011 seconds
#
# Revision: 0
# Processed by: cddbd v1.5.2PL0 Copyright (c) Steve Scherf et al.
# Submitted via: ExactAudioCopy v0.95b4
#
DISCID=c40bc10e
DTITLE=The Blooze Brothers Band - More Than The Blooze
DYEAR=1900
DGENRE=Blues
TTITLE0=01 Soul Finger
TTITLE1=02 I Ain't Drunk
TTITLE2=03 Think
TTITLE3=04  Georgia
TTITLE4=05 Long Train Runnin
TTITLE5=06 Natural Woman
TTITLE6=07 Ain't No Mountain High Enough
TTITLE7=08 Natural Ball
TTITLE8=09 Respect
TTITLE9=10 Drift Away
TTITLE10=11  Since You've Been Gone
TTITLE11=12 Funk # 49
TTITLE12=13 Proud Mary
TTITLE13=14  I Thank You
EXTD=
EXTT0=
EXTT1=
EXTT2=
EXTT3=
EXTT4=
EXTT5=
EXTT6=
EXTT7=
EXTT8=
EXTT9=
EXTT10=
EXTT11=
EXTT12=
EXTT13=
PLAYORDER=
